<?xml version="1.0" encoding="UTF-8" standalone="no"?>
<!DOCTYPE svg PUBLIC "-//W3C//DTD SVG 1.1//EN" "http://www.w3.org/Graphics/SVG/1.1/DTD/svg11.dtd">
<svg width="100%" height="100%" viewBox="0 0 5511 1151" version="1.1" xmlns="http://www.w3.org/2000/svg" xmlns:xlink="http://www.w3.org/1999/xlink" xml:space="preserve" xmlns:serif="http://www.serif.com/" style="fill-rule:evenodd;clip-rule:evenodd;stroke-linecap:round;stroke-linejoin:round;stroke-miterlimit:1.5;">
    <g id="Artboard1" transform="matrix(1.32577,0,0,1,0,0)">
        <rect x="0" y="0" width="4156.06" height="1150.36" style="fill:none;"/>
        <g transform="matrix(1.22718,0,0,1.62696,-508.675,-537.941)">
            <g transform="matrix(572.815,0,0,572.815,3676.93,866.983)">
            </g>
            <text x="1435.18px" y="866.983px" style="font-family:'Sacramento-Regular', 'Sacramento';font-size:572.815px;fill:rgb(209,136,0);">Cats 4 U</text>
        </g>
        <g id="Cat" transform="matrix(0.754276,0,0,1,46.9243,25.5618)">
            <g id="Face">
                <g id="Mouth" transform="matrix(0.901313,0,0,0.958036,-175.496,-190.493)">
                    <g id="Mouth-Top" serif:id="Mouth Top" transform="matrix(1.10949,0,0,1.0438,-121.961,-58.9851)">
                        <path d="M981.244,1102.76L981.244,1160.72" style="fill:none;stroke:rgb(209,136,0);stroke-width:25px;"/>
                    </g>
                    <g id="Mouth1" serif:id="Mouth" transform="matrix(1.10949,0,0,1.0438,-121.961,-58.9851)">
                        <path d="M866.343,1151.34C866.343,1151.34 888.424,1185.44 924.997,1185.54C941.076,1185.58 960.772,1180.84 981.244,1160.72C983.689,1158.32 980.277,1158.74 983.244,1161.66C1003.72,1181.78 1023.41,1186.52 1039.49,1186.48C1076.06,1186.37 1098.15,1152.28 1098.15,1152.28" style="fill:none;stroke:rgb(209,136,0);stroke-width:25px;"/>
                    </g>
                </g>
                <g id="L-eye" serif:id="L eye" transform="matrix(0.901313,0,0,0.958036,-175.496,-190.493)">
                    <g transform="matrix(0.982553,0.484818,-0.51533,0.924378,433.164,-334.64)">
                        <path d="M766.796,805.252C817.92,805.252 859.425,836.996 859.425,876.096C859.425,915.196 815.3,949.012 764.177,949.012C731.017,949.012 700.897,932.414 684.331,913.026C672.78,899.508 672.883,896.995 664.093,890.332C653.603,882.38 641.139,875.951 641.139,875.951C641.139,875.951 653.261,870.153 663.998,860.777C669.188,856.245 674.791,846.211 678.76,842.245C689.73,831.284 696.923,825.66 712.162,816.695C727.231,807.829 746.545,805.252 766.796,805.252Z" style="fill:none;stroke:rgb(209,136,0);stroke-width:25px;"/>
                    </g>
                    <g transform="matrix(1.10522,0.0915547,-0.0973165,1.03978,-32.0127,-132.674)">
                        <ellipse cx="774.879" cy="873.141" rx="13.804" ry="71.276" style="fill:rgb(209,136,0);stroke:rgb(209,136,0);stroke-width:25px;"/>
                    </g>
                </g>
                <g id="R-eye" serif:id="R eye" transform="matrix(0.901313,0,0,0.958036,-175.496,-190.493)">
                    <g transform="matrix(-0.982553,0.484818,0.51533,0.924378,1503.96,-334.64)">
                        <path d="M766.796,805.252C817.92,805.252 859.425,836.996 859.425,876.096C859.425,915.196 815.3,949.012 764.177,949.012C731.017,949.012 700.897,932.414 684.331,913.026C672.78,899.508 672.883,896.995 664.093,890.332C653.603,882.38 641.139,875.951 641.139,875.951C641.139,875.951 653.261,870.153 663.998,860.777C669.188,856.245 674.791,846.211 678.76,842.245C689.73,831.284 696.923,825.66 712.162,816.695C727.231,807.829 746.545,805.252 766.796,805.252Z" style="fill:none;stroke:rgb(209,136,0);stroke-width:25px;"/>
                    </g>
                    <g transform="matrix(-1.10522,0.0915547,0.0973165,1.03978,1969.36,-132.674)">
                        <ellipse cx="774.879" cy="873.141" rx="13.804" ry="71.276" style="fill:rgb(209,136,0);stroke:rgb(209,136,0);stroke-width:25px;"/>
                    </g>
                </g>
                <g transform="matrix(1,0,0,1,-287.055,-247.952)">
                    <g id="Nose">
                        <path d="M983.158,1025.53C983.158,1025.53 993.057,1025.38 1007.15,1025.54C1019.07,1025.69 1032.91,1025.6 1043.54,1036.45C1044.16,1037.08 1044.84,1038.36 1045.05,1042.1C1045.18,1044.62 1044.21,1053.11 1035.5,1054.6C1024.22,1056.53 1023.53,1054.48 1017.02,1057.01C1011.18,1059.27 1008.89,1061.91 1005.87,1065.67C1005.36,1066.31 1002.54,1072.4 1002.41,1074.08C1001.74,1082.47 1001.02,1103.27 985.601,1103.5C967.087,1103.78 998.67,1103.78 980.156,1103.5C964.738,1103.27 964.016,1082.47 963.348,1074.08C963.214,1072.4 960.396,1066.31 959.891,1065.67C956.871,1061.91 954.573,1059.27 948.737,1057.01C942.231,1054.48 941.542,1056.53 930.254,1054.6C921.548,1053.11 920.574,1044.62 920.712,1042.1C920.918,1038.36 921.601,1037.08 922.216,1036.45C931.521,1026.95 943.35,1024.6 954.087,1025.15C969.627,1025.93 983.158,1025.53 983.158,1025.53Z" style="fill:none;stroke:rgb(209,136,0);stroke-width:25px;"/>
                    </g>
                </g>
                <g id="R-whiskers" serif:id="R whiskers" transform="matrix(1,0,0,1,-235.42,-247.002)">
                    <path d="M1114.37,1049.29C1114.37,1049.29 1426.43,1000.25 1634.74,984.405" style="fill:none;stroke:rgb(209,136,0);stroke-width:25px;"/>
                    <path d="M1114.37,1080.2C1114.37,1080.2 1378.08,1064.24 1517.45,1102.76" style="fill:none;stroke:rgb(209,136,0);stroke-width:25px;"/>
                    <path d="M1126.01,1110.51C1126.01,1110.51 1440.74,1116.89 1581.13,1179.46" style="fill:none;stroke:rgb(209,136,0);stroke-width:25px;"/>
                    <path d="M1114.37,1137.17C1114.37,1137.17 1275.19,1136.61 1497.06,1229.21" style="fill:none;stroke:rgb(209,136,0);stroke-width:25px;"/>
                </g>
                <g id="L-whiskers" serif:id="L whiskers" transform="matrix(-1,0,0,1,1628.2,-244.056)">
                    <path d="M1114.37,1049.29C1114.37,1049.29 1426.43,1000.25 1634.74,984.405" style="fill:none;stroke:rgb(209,136,0);stroke-width:25px;"/>
                    <path d="M1114.37,1080.2C1114.37,1080.2 1378.08,1064.24 1517.45,1102.76" style="fill:none;stroke:rgb(209,136,0);stroke-width:25px;"/>
                    <path d="M1126.01,1110.51C1126.01,1110.51 1440.74,1116.89 1581.13,1179.46" style="fill:none;stroke:rgb(209,136,0);stroke-width:25px;"/>
                    <path d="M1114.37,1137.17C1114.37,1137.17 1275.19,1136.61 1497.06,1229.21" style="fill:none;stroke:rgb(209,136,0);stroke-width:25px;"/>
                </g>
            </g>
            <g id="Head" transform="matrix(1.92996,0,0,2.1261,-863.506,-782.815)">
                <path d="M1026.23,598.613C1036.14,615.469 1045.36,646.674 1047.25,665.897C1051.45,708.767 1036.2,756.99 1007.34,789.396C963.369,838.767 887.877,866.919 807.276,866.919C731.698,866.919 660.66,840.433 616.287,796.208C582.276,762.31 570.283,716.925 570.283,669.799C570.283,642.307 572.706,621.096 584.722,598.613C542.061,546.39 538.799,410.772 563.016,390.899C567.135,387.519 574.099,384.465 580.163,388.199C613.77,408.89 675.495,440.865 726.451,480.626C737.32,478.126 755.491,476.187 775.742,475.027C816.687,472.682 866.136,473.526 880.928,479.373C929.121,438.679 994.442,405.845 1030.79,388.199C1037.25,385.062 1043.82,387.519 1047.94,390.899C1072.15,410.772 1068.89,546.39 1026.23,598.613Z" style="fill:none;stroke:rgb(209,136,0);stroke-width:20.52px;"/>
            </g>
        </g>
    </g>
</svg>
