<?xml version="1.0" encoding="UTF-8" standalone="no"?>
<!DOCTYPE svg PUBLIC "-//W3C//DTD SVG 1.1//EN" "http://www.w3.org/Graphics/SVG/1.1/DTD/svg11.dtd">
<svg width="100%" height="100%" viewBox="0 0 1080 1080" version="1.1" xmlns="http://www.w3.org/2000/svg" xmlns:xlink="http://www.w3.org/1999/xlink" xml:space="preserve" xmlns:serif="http://www.serif.com/" style="fill-rule:evenodd;clip-rule:evenodd;stroke-linejoin:round;stroke-miterlimit:2;">
    <g transform="matrix(1,0,0,1,108.317,93.7775)">
        <g id="Layer1">
            <g id="Body" transform="matrix(1,0,0,1,-32.0988,7.10185)">
                <path d="M132.961,588.343C155.089,542.572 181.179,497.201 219.25,462.657C261.17,424.62 312.728,399.957 364.655,378.842C448.208,344.866 533.456,314.259 621.383,293.615C638.696,356.013 695.712,401.968 763.465,402.514C764.877,519.583 763.671,614.643 763.689,731.713C763.694,761.476 764.139,821.001 764.139,821.001C764.139,821.001 763.309,825.95 766.583,826.523C807.948,833.762 808.175,881.544 730.393,878.06C725.575,877.844 720.695,878.284 715.935,877.508C711.456,876.778 707.146,875.182 702.9,873.578C687.126,867.619 686.816,847.616 686.981,833.583L686.919,833.583L686.919,572.819C686.919,572.819 593.089,701 515.255,787.308L590.655,787.308C596.653,787.308 600.76,794.008 602.654,798.637C609.775,816.041 609.775,835.9 602.654,853.304C600.76,857.933 596.653,864.634 590.655,864.634L400.024,864.634L400.024,864.527C331.863,865.535 181.435,867.958 117.523,864.033C115.305,864.766 112.935,865.162 110.474,865.162L65.498,865.162C53.087,865.162 43.011,855.086 43.011,842.674C44.687,681.956 47.667,520.907 43.011,360.176C42.353,337.497 15.295,328.142 10.99,307.066C9.498,299.764 11.025,292.847 13.92,286.052C25.383,259.15 62.722,257.398 85.771,268.319C109.302,279.469 120.532,304.797 128.044,328.229C130.91,337.167 135.599,350.231 132.961,360.176L132.961,588.343" style="fill:none;stroke:black;stroke-width:10px;"/>
            </g>
            <g id="Head" transform="matrix(1,0,0,1,-3.83465,32.0157)">
                <g transform="matrix(1,0,0,1,-54.6331,-2.80412)">
                    <path d="M917.694,154.851C931.641,177.495 939.689,204.152 939.689,232.675C939.689,314.743 873.06,381.371 790.992,381.371C708.924,381.371 642.296,314.743 642.296,232.675C642.296,206.967 648.834,182.774 660.337,161.669L694.688,9.906L748.576,90.126C762.02,86.126 776.257,83.978 790.992,83.978C804.992,83.978 818.543,85.917 831.39,89.541L884.886,9.906L917.694,154.851Z" style="fill:none;stroke:black;stroke-width:10px;"/>
                </g>
                <g transform="matrix(1,0,0,1,0,33.6812)">
                    <g transform="matrix(0.768485,0,0,1,132.238,-26.2547)">
                        <ellipse cx="728.642" cy="195.068" rx="27.642" ry="14.574"/>
                    </g>
                    <g transform="matrix(0.768485,0,0,1,238.408,-26.338)">
                        <ellipse cx="728.642" cy="195.068" rx="27.642" ry="14.574"/>
                    </g>
                    <g transform="matrix(1,0,0,1.23665,-43.524,-52.2533)">
                        <ellipse cx="735.713" cy="178.728" rx="2.283" ry="11.751" style="fill:white;"/>
                    </g>
                    <g transform="matrix(1,0,0,1.23665,62.6459,-52.3367)">
                        <ellipse cx="735.713" cy="178.728" rx="2.283" ry="11.751" style="fill:white;"/>
                    </g>
                </g>
            </g>
        </g>
    </g>
</svg>
